# xmcd
#
# Track frame offsets: 
#        150
#        12235
#        23890
#        35400
#        45805
#        56250
#        68257
#        76510
#        88655
#        99075
#        108492
#        119702
#        130102
#        141617
#        153187
#        164262
#        174992
#        185205
#        194572
#        205445
#        217550
#        228112
#        239455
#        251032
#        259487
#        270300
#        281017
#        290220
#        301187
#        311267
#        323005
#        333797
#        343242
#        354297
#
# Disc length: 4869 seconds
#
# Revision: 0
# Processed by: cddbd v1.5.2PL0 Copyright (c) Steve Scherf et al.
# Submitted via: ExactAudioCopy v0.95b3
#
DISCID=d9130322
DTITLE=Tibby Edwards - Play It Cool Man, Play It Cool
DYEAR=2007
DGENRE=Country
TTITLE0=Flip, Flop And Fly
TTITLE1=Play It Cool Man, Play It Cool
TTITLE2=There Ain't No Better Time
TTITLE3=Long Time Gone
TTITLE4=Shift Gears
TTITLE5=You Made A Believer Out Of Me
TTITLE6=C'est Si Tout
TTITLE7=It'll Be A Long, Long Time
TTITLE8=Fool That I Was (I Asked For More)
TTITLE9=(I Don't Want To Say I Love You) But I Do
TTITLE10=I'd Come Running
TTITLE11=Walkin' And Cryin' With The Blues
TTITLE12=Whay Can't You Be Mine
TTITLE13=I'm Still In Love With You
TTITLE14=Come On Chere (Let's Have Fun)
TTITLE15=Mine Forever
TTITLE16=Too Proud To Wear My Name
TTITLE17=If You Love Me, Let Me Know It
TTITLE18=I Can't Face The Future
TTITLE19=If You Lose, You'll Understand
TTITLE20=That's How I Was Lost
TTITLE21=Cry, Cry Darlin'
TTITLE22=What Has Become Of You
TTITLE23=Try To Understand
TTITLE24=Just A Few More Tears
TTITLE25=Uninvited
TTITLE26=Big Mamou
TTITLE27=Teenage Troubles
TTITLE28=Day Dreaming
TTITLE29=Promises
TTITLE30=Memory Of A Lie
TTITLE31=One More Night
TTITLE32=Forever Is A Long Long Time
TTITLE33=Congratulations To You
EXTD=
EXTT0=
EXTT1=
EXTT2=
EXTT3=
EXTT4=
EXTT5=
EXTT6=
EXTT7=
EXTT8=
EXTT9=
EXTT10=
EXTT11=
EXTT12=
EXTT13=
EXTT14=
EXTT15=
EXTT16=
EXTT17=
EXTT18=
EXTT19=
EXTT20=
EXTT21=
EXTT22=
EXTT23=
EXTT24=
EXTT25=
EXTT26=
EXTT27=
EXTT28=
EXTT29=
EXTT30=
EXTT31=
EXTT32=
EXTT33=
PLAYORDER=
